<!DOCTYPE svg PUBLIC "-//W3C//DTD SVG 1.1//EN" "http://www.w3.org/Graphics/SVG/1.1/DTD/svg11.dtd">
<!-- Uploaded to: SVG Repo, www.svgrepo.com, Transformed by: SVG Repo Mixer Tools -->
<svg version="1.1" id="Layer_1" xmlns="http://www.w3.org/2000/svg" xmlns:xlink="http://www.w3.org/1999/xlink" viewBox="0 0 511.996 511.996" xml:space="preserve" width="800px" height="800px" fill="#000000">
<g id="SVGRepo_bgCarrier" stroke-width="0"/>
<g id="SVGRepo_tracerCarrier" stroke-linecap="round" stroke-linejoin="round"/>
<g id="SVGRepo_iconCarrier"> <rect x="217.569" y="259.28" transform="matrix(0.7071 -0.7071 0.7071 0.7071 -135.5154 268.1699)" style="fill:#A7B0C0;" width="76.765" height="76.774"/> <path style="fill:#BDC4D0;" d="M31.482,127.469c-12.083-12.083-18.739-28.143-18.739-45.235s6.656-33.152,18.739-45.235l9.054-9.054 L255.959,243.36l-54.289,54.289L31.482,127.469z"/> <path style="fill:#919CB0;" d="M255.942,243.369L471.452,27.868l9.054,9.054c12.083,12.083,18.739,28.151,18.739,45.244 c0,17.084-6.656,33.152-18.739,45.235L310.231,297.658L255.942,243.369z"/> <path style="fill:#573A32;" d="M471.452,9.786L255.951,225.278L40.535,9.871L22.445,27.962c-29.926,29.926-29.926,78.626,0,108.561 l188.203,188.203l-38.289,38.289c-12.553-8.943-27.793-14.327-44.339-14.327c-42.325,0-76.757,34.441-76.757,76.757 c0,42.325,34.432,76.766,76.757,76.766s76.757-34.441,76.757-76.766c0-16.546-5.385-31.787-14.327-44.339l38.289-38.289 l27.221,27.213l27.221-27.213l38.289,38.289c-8.943,12.553-14.327,27.793-14.327,44.339c0,42.325,34.432,76.766,76.757,76.766 s76.766-34.441,76.766-76.766c0-42.325-34.432-76.757-76.766-76.757c-16.546,0-31.787,5.385-44.339,14.327l-38.289-38.289 l188.279-188.297c29.926-29.926,29.926-78.626,0-108.553L471.452,9.786z M128.019,476.61c-28.262,0-51.174-22.912-51.174-51.174 c0-28.262,22.912-51.174,51.174-51.174s51.174,22.912,51.174,51.174C179.194,453.698,156.282,476.61,128.019,476.61z M383.891,374.261c28.262,0,51.174,22.912,51.174,51.174c0,28.262-22.912,51.174-51.174,51.174 c-28.262,0-51.174-22.912-51.174-51.174C332.717,397.173,355.629,374.261,383.891,374.261z M201.67,279.558L40.535,118.423 c-19.985-19.994-19.985-52.386,0-72.371L237.86,243.369L201.67,279.558z M255.951,333.839l-36.181-36.19l36.181-36.181 l36.181,36.181L255.951,333.839z M471.452,118.338l-161.22,161.22l-36.19-36.19l197.41-197.402 C491.437,65.952,491.437,98.353,471.452,118.338z"/> </g>
</svg>